Coordinates
version=1
nRows=7
nColumns=46
inDegrees=yes

Units are S.I. units (second, meters, Newtons, ...)
Angles are in degrees.

endheader
time	pelvis_tilt	pelvis_list	pelvis_rotation	pelvis_tx	pelvis_ty	pelvis_tz	bb_angle	bb_tx	bb_ty	bb_tz	hip_flexion_r	hip_adduction_r	hip_rotation_r	knee_angle_r	knee_angle_r_beta	ankle_angle_r	subtalar_angle_r	mtp_angle_r	crank_angle_r	hip_flexion_l	hip_adduction_l	hip_rotation_l	knee_angle_l	knee_angle_l_beta	ankle_angle_l	subtalar_angle_l	mtp_angle_l	crank_angle_l	lumbar_extension	lumbar_bending	lumbar_rotation	arm_flex_r	arm_add_r	arm_rot_r	elbow_flex_r	pro_sup_r	wrist_flex_r	wrist_dev_r	arm_flex_l	arm_add_l	arm_rot_l	elbow_flex_l	pro_sup_l	wrist_flex_l	wrist_dev_l
      7.50000000	    -13.15523061	      5.20623039	      2.54759766	      0.19680466	      1.06451220	     -0.30775185	      0.00000000	      0.50000000	      0.00000000	      0.25000000	     44.44598933	    -13.77165066	     -4.20580262	     52.81092482	      0.92172452	    -22.71953294	     -6.08968073	      0.00000000	      0.00000000	     88.20364762	     -2.83171501	      1.45439191	    105.08939676	      1.83415598	      6.45179140	     -5.06922354	      0.00000000	      0.00000000	    -70.70196984	    -12.81603644	     -3.62521798	     87.67107607	    -43.66244333	     46.18754637	     68.92161981	     41.67278818	      0.00000000	      0.00000000	     89.67355708	     -7.07514277	     31.76574355	     71.56356123	     40.16910624	      0.00000000	      0.00000000
      7.50500000	    -13.20565576	      4.73545153	      2.67691922	      0.19632463	      1.06494240	     -0.30706850	      0.00000000	      0.50000000	      0.00000000	      0.25000000	     45.07500650	    -13.25187359	     -3.83380433	     54.84603983	      0.95724398	    -22.69605488	     -6.58251826	      0.00000000	      0.00000000	     87.20474200	     -2.98483262	      1.61648515	    102.93406386	      1.79653833	      7.63780905	     -5.09380643	      0.00000000	      0.00000000	    -70.61187710	    -12.75178639	     -3.14307740	     87.63407721	    -43.82939576	     46.25558943	     68.91810217	     41.68696000	      0.00000000	      0.00000000	     89.67564260	     -6.80099064	     31.69970058	     71.59731046	     40.10442866	      0.00000000	      0.00000000
      7.51000000	    -13.25190982	      4.65615524	      2.74109821	      0.19608691	      1.06509974	     -0.30666842	      0.00000000	      0.50000000	      0.00000000	      0.25000000	     45.96597529	    -13.12591164	     -3.36259338	     57.26282444	      0.99942483	    -22.47862219	     -7.49319364	      0.00000000	      0.00000000	     86.03588218	     -3.10842895	      1.29837906	    100.67720261	      1.75714867	      8.88819495	     -4.90490600	      0.00000000	      0.00000000	    -70.58583163	    -12.95478625	     -2.95459597	     87.62201432	    -44.28761860	     46.31104178	     68.85636238	     41.69358016	      0.00000000	      0.00000000	     89.67835279	     -6.26057057	     31.69006709	     71.57650535	     40.01347333	      0.00000000	      0.00000000
      7.51500000	    -13.42619590	      4.87585164	      2.83449000	      0.19598624	      1.06531540	     -0.30626482	      0.00000000	      0.50000000	      0.00000000	      0.25000000	     47.04762591	    -13.21150888	     -2.62955277	     59.61198397	      1.04042539	    -22.46046853	     -8.54192986	      0.00000000	      0.00000000	     84.80366177	     -3.13931609	      0.61044933	     98.14985728	      1.71303817	      9.76777892	     -4.74904975	      0.00000000	      0.00000000	    -70.66448685	    -13.58817946	     -2.05313037	     87.16709293	    -47.64009283	     47.04983749	     70.67072432	     43.50472712	      0.00000000	      0.00000000	     89.69608049	     -3.48738784	     31.74945641	     71.72376945	     28.63553664	      0.00000000	      0.00000000
      7.52000000	    -13.33944569	      4.69099487	      2.96612538	      0.19578897	      1.06535847	     -0.30607444	      0.00000000	      0.50000000	      0.00000000	      0.25000000	     47.83428067	    -12.98948551	     -2.17328753	     62.08018243	      1.08350358	    -22.11195741	     -9.25459577	      0.00000000	      0.00000000	     83.46472171	     -3.09800177	      0.38522146	     95.69926008	      1.67026718	     10.23323124	     -4.97425891	      0.00000000	      0.00000000	    -70.71797298	    -13.57152312	     -1.89990719	     87.18545174	    -47.70682868	     47.05263897	     70.57524513	     43.49279247	      0.00000000	      0.00000000	     89.69441391	     -3.23971040	     31.82784248	     71.68492732	     28.62645369	      0.00000000	      0.00000000
      7.52500000	    -13.27046474	      4.64763453	      3.13116591	      0.19565778	      1.06532427	     -0.30607872	      0.00000000	      0.50000000	      0.00000000	      0.25000000	     48.68785514	    -12.89644988	     -1.58328629	     64.55721258	      1.12673592	    -21.75584736	     -9.85031551	      0.00000000	      0.00000000	     82.05827929	     -2.99553683	      0.01248595	     93.15843402	      1.62592140	     10.42586981	     -5.11164949	      0.00000000	      0.00000000	    -70.74465770	    -13.62560732	     -1.88718926	     87.07563547	    -47.82056221	     47.09636465	     70.44371383	     43.48081050	      0.00000000	      0.00000000	     89.69152520	     -2.92299392	     31.90392926	     71.56445194	     28.60255306	      0.00000000	      0.00000000
      7.53000000	    -13.24355916	      4.65063690	      3.26625461	      0.19545674	      1.06512890	     -0.30603671	      0.00000000	      0.50000000	      0.00000000	      0.25000000	     49.66002616	    -12.78591583	     -0.90100610	     67.03954262	      1.17006075	    -21.40228105	    -10.42314358	      0.00000000	      0.00000000	     80.68794761	     -2.86721617	     -0.41100929	     90.51561811	      1.57979556	     10.25544440	     -5.61737530	      0.00000000	      0.00000000	    -70.71247577	    -13.71077895	     -1.86900674	     86.85068213	    -47.99894854	     47.17855023	     70.26973239	     43.47147832	      0.00000000	      0.00000000	     89.69577222	     -2.49521717	     31.96610912	     71.26517987	     28.54228304	      0.00000000	      0.00000000
